<svg width="32" height="32" viewBox="0 0 32 32" fill="none" xmlns="http://www.w3.org/2000/svg">
<path fill-rule="evenodd" clip-rule="evenodd" d="M20.1 8.68182C20.1 11.8198 17.5256 14.3636 14.35 14.3636C11.1744 14.3636 8.6 11.8198 8.6 8.68182C8.6 5.54384 11.1744 3 14.35 3C17.5256 3 20.1 5.54384 20.1 8.68182ZM12.05 16.6364C7.60411 16.6364 4 20.1977 4 24.5909C4 26.4737 5.54462 28 7.45 28H15.9707C16.4677 28 16.75 27.4001 16.4927 26.9799C15.8626 25.9513 15.5 24.7448 15.5 23.4545C15.5 21.1431 16.664 19.1002 18.4445 17.8672C18.8624 17.5778 18.8267 16.9139 18.3275 16.8093C17.7864 16.696 17.2252 16.6364 16.65 16.6364H12.05ZM22.4 18.9091C23.0351 18.9091 23.55 19.4178 23.55 20.0455V22.3182H25.85C26.4851 22.3182 27 22.8269 27 23.4545C27 24.0822 26.4851 24.5909 25.85 24.5909H23.55V26.8636C23.55 27.4911 23.0351 28 22.4 28C21.7649 28 21.25 27.4911 21.25 26.8636V24.5909H18.95C18.3149 24.5909 17.8 24.0822 17.8 23.4545C17.8 22.8269 18.3149 22.3182 18.95 22.3182H21.25V20.0455C21.25 19.4178 21.7649 18.9091 22.4 18.9091Z" fill="black"/>
</svg>
