<svg width="32" height="32" viewBox="0 0 32 32" fill="none" xmlns="http://www.w3.org/2000/svg">
<path d="M24.005 10.2745H19.6976V8.51733C19.6976 7.68065 19.0252 7 18.1988 7H13.8009C12.9745 7 12.3021 7.68065 12.3021 8.51733V10.2745H7.99466C6.89737 10.2745 6.00462 11.1783 6.00462 12.2892C6.00462 13.2983 5.90254 14.2045 6.65787 15.2236C7.08522 15.8001 7.67248 16.2115 8.35616 16.413L14.9951 18.3698C15.6523 18.5635 16.3472 18.5636 17.0046 18.3698L23.6435 16.413C24.3271 16.2114 24.9144 15.8001 25.3418 15.2236C26.1005 14.1999 25.995 13.2844 25.995 12.2892C25.995 11.1783 25.1023 10.2745 24.005 10.2745ZM13.5716 8.51733C13.5716 8.38933 13.6745 8.28523 13.8009 8.28523H18.1988C18.3252 8.28523 18.4281 8.38937 18.4281 8.51733V10.2745H13.5716V8.51733Z" fill="white"/>
<path d="M24.0024 17.8726C16.8381 19.9052 16.9308 19.9463 16 19.9463C15.0758 19.9463 15.2951 19.943 7.99762 17.8727C7.22821 17.6544 6.54679 17.252 6 16.6973V22.6361C6 23.7058 6.89313 24.5761 7.99099 24.5761H24.009C25.1068 24.5761 26 23.7058 26 22.6361V16.6973C25.4532 17.2519 24.7718 17.6544 24.0024 17.8726Z" fill="white"/>
</svg>
