<svg width="32" height="32" viewBox="0 0 32 32" fill="none" xmlns="http://www.w3.org/2000/svg">
<g clip-path="url(#clip0_1773_1270)">
<path d="M19.1992 13.3984C16.0007 13.3984 13.3984 16.0007 13.3984 19.1992C13.3984 22.3978 16.0007 25 19.1992 25C22.3978 25 25 22.3978 25 19.1992C25 16.0007 22.3978 13.3984 19.1992 13.3984Z" fill="white"/>
<path d="M12.8711 13.3984C16.1237 13.3984 18.6719 12.0085 18.6719 10.2344C18.6719 8.46025 16.1237 7 12.8711 7C9.61844 7 7 8.46025 7 10.2344C7 12.0085 9.61844 13.3984 12.8711 13.3984Z" fill="white"/>
<path d="M7 18.8672V19.7264C7 21.5006 9.61844 22.8905 12.8711 22.8905C13.0556 22.8905 13.2344 22.8735 13.416 22.8646C13.0115 22.2286 12.7098 21.5229 12.5322 20.7684C10.1801 20.7035 8.13773 19.9807 7 18.8672Z" fill="white"/>
<path d="M12.3691 19.6996C12.357 19.5337 12.3438 19.368 12.3438 19.1991C12.3438 18.6494 12.4158 18.1173 12.5386 17.6047C10.1836 17.5408 8.13875 16.8177 7 15.7031V16.5624C7 18.2424 9.36468 19.5627 12.3691 19.6996Z" fill="white"/>
<path d="M12.8711 16.5624C12.8717 16.5624 12.8721 16.5623 12.8727 16.5623C13.2205 15.7311 13.7261 14.9818 14.3539 14.3539C13.8777 14.4141 13.3855 14.453 12.8711 14.453C10.3674 14.453 8.19271 13.7064 7 12.5391V13.3983C7 15.1724 9.61844 16.5624 12.8711 16.5624Z" fill="white"/>
</g>
<defs>
<clipPath id="clip0_1773_1270">
<rect width="18" height="18" fill="white" transform="translate(7 7)"/>
</clipPath>
</defs>
</svg>
