<svg width="32" height="32" viewBox="0 0 32 32" fill="none" xmlns="http://www.w3.org/2000/svg">
<path d="M16.4065 24.905C16.1506 25.0317 15.8494 25.0317 15.5935 24.905L15.5899 24.9032L15.583 24.8997L15.5595 24.8879C15.5397 24.8779 15.5115 24.8635 15.4754 24.8447C15.4032 24.8071 15.2995 24.7524 15.1691 24.6809C14.9083 24.5379 14.5391 24.3277 14.0977 24.0546C13.2169 23.5096 12.0385 22.7081 10.8559 21.6836C10.2058 21.1204 9.5399 20.4772 8.91782 19.7603C8.83014 19.6593 8.70275 19.6 8.56819 19.6H6.90909C6.40702 19.6 6 19.1971 6 18.7C6 18.2029 6.40702 17.8 6.90909 17.8H10.5455C10.9172 17.8 11.2515 17.5759 11.3895 17.2343L12.1948 15.2411C12.2558 15.0903 12.4715 15.0903 12.5325 15.2411L14.2468 19.4843C14.3849 19.8259 14.7192 20.05 15.0909 20.05C15.4626 20.05 15.7969 19.8259 15.935 19.4843L16.9221 17.0411C16.9831 16.8903 17.1987 16.8903 17.2597 17.0411L17.3377 17.2343C17.4758 17.5759 17.8101 17.8 18.1818 17.8H19.6364C20.1385 17.8 20.5455 17.3971 20.5455 16.9C20.5455 16.4029 20.1385 16 19.6364 16H18.9204C18.8461 16 18.7792 15.9552 18.7515 15.8869L17.935 13.8657C17.7969 13.5241 17.4626 13.3 17.0909 13.3C16.7192 13.3 16.3849 13.5241 16.2468 13.8657L15.2597 16.3089C15.1987 16.4597 14.9831 16.4597 14.9221 16.3089L13.2077 12.0657C13.0696 11.7241 12.7354 11.5 12.3636 11.5C11.9919 11.5 11.6576 11.7241 11.5196 12.0657L9.92997 16H6.90774C6.71829 16 6.54773 15.884 6.48683 15.7064C6.17949 14.8101 6 13.8562 6 12.85C6 11.563 6.38641 10.1239 7.26649 8.98454C8.16917 7.81592 9.56763 7 11.4546 7C13.3298 7 14.6765 7.8023 15.5371 8.58868C15.7101 8.74677 15.8642 8.90474 16 9.05632C16.1358 8.90474 16.2899 8.74677 16.4629 8.58868C17.3235 7.8023 18.6703 7 20.5455 7C22.4324 7 23.8308 7.81592 24.7335 8.98454C25.6135 10.1239 26 11.563 26 12.85C26 16.6268 23.4711 19.6678 21.1441 21.6836C19.9615 22.708 18.7832 23.5096 17.9023 24.0546C17.4609 24.3277 17.0918 24.5379 16.8309 24.6809C16.7005 24.7524 16.5968 24.8071 16.5246 24.8447C16.4885 24.8635 16.4604 24.8779 16.4405 24.8879L16.417 24.8997L16.4102 24.9032L16.4065 24.905Z" fill="white"/>
</svg>
