<svg width="32" height="32" viewBox="0 0 32 32" fill="none" xmlns="http://www.w3.org/2000/svg">
<path d="M23.8339 12.509C21.5387 9.09084 18.727 9.84482 16.8666 10.3438C16.6705 10.3963 16.4785 10.4479 16.2968 10.4917C16.5307 8.39324 17.6032 6.76139 19.5563 5.52216L18.7813 4.1835C17.7485 4.83877 16.9133 5.60381 16.276 6.47367C16.0389 5.68369 15.6683 5.02055 15.1637 4.49231C14.1923 3.47532 12.7466 2.97343 10.8673 3.00108L10.1404 3.01172L10.1302 3.77274C10.1039 5.74036 10.5832 7.25372 11.5547 8.27076C12.3544 9.10799 13.4764 9.59451 14.8962 9.72562C14.8503 9.98244 14.8156 10.2449 14.7917 10.5127C14.5843 10.4647 14.3616 10.4051 14.1333 10.3438C12.2728 9.84496 9.4612 9.09093 7.16602 12.5091C6.06918 14.1426 5.73771 16.3534 6.20749 18.9026C6.76229 21.9136 8.43027 25.0354 10.0874 26.1644C12.1071 27.5405 13.8112 26.8906 14.8293 26.5023C15.0761 26.4082 15.3832 26.2911 15.5001 26.2911C15.617 26.2911 15.924 26.4082 16.1708 26.5023C16.7225 26.7127 17.4757 27 18.3714 27C19.1285 27 19.9875 26.7947 20.9127 26.1644C22.5699 25.0354 24.2378 21.9135 24.7926 18.9026C25.2622 16.3534 24.9307 14.1425 23.8339 12.509Z" fill="black"/>
</svg>
