<svg width="32" height="32" viewBox="0 0 32 32" fill="none" xmlns="http://www.w3.org/2000/svg">
<g clip-path="url(#clip0_1773_1250)">
<path fill-rule="evenodd" clip-rule="evenodd" d="M10.716 9.84401L8.97601 8.10406C8.73569 7.86375 8.34633 7.86375 8.10602 8.10406C7.8657 8.34437 7.8657 8.73372 8.10602 8.97403L9.846 10.714C10.0863 10.9543 10.4757 10.9543 10.716 10.714C10.9563 10.4737 10.9563 10.0843 10.716 9.84401Z" fill="white"/>
<path fill-rule="evenodd" clip-rule="evenodd" d="M8.11722 14.8848H5.61524C5.27518 14.8848 5 15.1599 5 15.5C5 15.84 5.27518 16.1152 5.61524 16.1152H8.11722C8.45728 16.1152 8.73246 15.84 8.73246 15.5C8.73246 15.1599 8.45728 14.8848 8.11722 14.8848Z" fill="white"/>
<path fill-rule="evenodd" clip-rule="evenodd" d="M25.3868 14.8848H22.8848C22.5447 14.8848 22.2695 15.1599 22.2695 15.5C22.2695 15.84 22.5447 16.1152 22.8848 16.1152H25.3868C25.7268 16.1152 26.002 15.84 26.002 15.5C26.002 15.1599 25.7268 14.8848 25.3868 14.8848Z" fill="white"/>
<path fill-rule="evenodd" clip-rule="evenodd" d="M22.8957 8.10406C22.6554 7.86375 22.266 7.86375 22.0257 8.10406L20.2857 9.84401C20.0454 10.0843 20.0454 10.4737 20.2857 10.714C20.526 10.9543 20.9154 10.9543 21.1557 10.714L22.8957 8.97403C23.136 8.73372 23.136 8.34441 22.8957 8.10406Z" fill="white"/>
<path fill-rule="evenodd" clip-rule="evenodd" d="M15.502 5C15.1619 5 14.8867 5.27517 14.8867 5.61523V8.11715C14.8867 8.45721 15.1619 8.73239 15.502 8.73239C15.842 8.73239 16.1172 8.45721 16.1172 8.11715V5.61523C16.1172 5.27517 15.842 5 15.502 5Z" fill="white"/>
<path d="M18.9444 11.1564C17.6032 10.0982 15.8682 9.7168 14.1701 10.1229C12.2014 10.5781 10.6141 12.1408 10.1342 14.0972C9.65428 16.0659 10.208 18.0592 11.623 19.4497C12.1275 19.9542 12.4229 20.7458 12.4229 21.5579V21.6932C12.4229 22.0377 12.6935 22.3085 13.0381 22.3085H17.96C18.3046 22.3085 18.5753 22.0377 18.5753 21.6932V21.5579C18.5753 20.758 18.8829 19.9419 19.4243 19.4127C20.458 18.3669 21.0363 16.9765 21.0363 15.4999C21.0363 13.8019 20.2733 12.2146 18.9444 11.1564ZM15.4988 13.6543C14.5706 13.6543 13.8949 14.2699 13.718 14.9827C13.6375 15.3068 13.3113 15.5137 12.9724 15.4321C12.6431 15.3504 12.4418 15.0163 12.5236 14.6871C12.8284 13.4566 13.9841 12.4238 15.4988 12.4238C15.8389 12.4238 16.114 12.699 16.114 13.039C16.114 13.3791 15.8389 13.6543 15.4988 13.6543Z" fill="white"/>
<path fill-rule="evenodd" clip-rule="evenodd" d="M13.0391 23.5391V24.1543C13.0391 25.172 13.867 26 14.8848 26H16.1153C17.133 26 17.961 25.172 17.961 24.1543V23.5391H13.0391Z" fill="white"/>
</g>
<defs>
<clipPath id="clip0_1773_1250">
<rect width="21" height="21" fill="white" transform="translate(5 5)"/>
</clipPath>
</defs>
</svg>
