<svg width="32" height="32" viewBox="0 0 32 32" fill="none" xmlns="http://www.w3.org/2000/svg">
<path fill-rule="evenodd" clip-rule="evenodd" d="M15.75 5C21.683 5 26.5 9.817 26.5 15.75C26.5 21.683 21.683 26.5 15.75 26.5C9.817 26.5 5 21.683 5 15.75C5 9.817 9.817 5 15.75 5ZM10.25 16C9.836 16 9.5 16.336 9.5 16.75C9.5 20.199 12.301 23 15.75 23C19.199 23 22 20.199 22 16.75C22 16.336 21.664 16 21.25 16H10.25ZM18.701 13.35C18.993 13.13 19.356 13 19.75 13C20.144 13 20.507 13.13 20.799 13.35C21.13 13.599 21.601 13.532 21.85 13.201C22.098 12.87 22.032 12.4 21.701 12.151C21.157 11.742 20.482 11.5 19.75 11.5C19.018 11.5 18.343 11.742 17.799 12.151C17.468 12.4 17.402 12.87 17.65 13.201C17.899 13.532 18.37 13.599 18.701 13.35ZM10.701 13.35C10.993 13.13 11.356 13 11.75 13C12.144 13 12.507 13.13 12.799 13.35C13.13 13.599 13.601 13.532 13.85 13.201C14.098 12.87 14.032 12.4 13.701 12.151C13.157 11.742 12.482 11.5 11.75 11.5C11.018 11.5 10.343 11.742 9.799 12.151C9.468 12.4 9.402 12.87 9.65 13.201C9.899 13.532 10.37 13.599 10.701 13.35Z" fill="black"/>
</svg>
