<svg width="32" height="32" viewBox="0 0 32 32" fill="none" xmlns="http://www.w3.org/2000/svg">
<path d="M24.9043 18.6278C23.8799 19.8697 19.3745 23.5864 17.0312 25.4901C16.1972 26.17 15.0051 26.17 14.1711 25.4901C11.8278 23.5864 7.32691 19.8697 6.29802 18.6278C4.72975 16.7377 4 14.9382 4 12.9802C4 11.0674 4.65269 9.30878 5.84023 8.02153C7.04589 6.72068 8.69122 6 10.4816 6C11.8232 6 13.047 6.42606 14.1258 7.26006C14.6878 7.69972 15.1864 8.21643 15.5989 8.80113C16.0159 8.22096 16.5099 7.69972 17.072 7.26006C18.1507 6.42153 19.379 6 20.7207 6C22.5156 6 24.1609 6.72068 25.362 8.02153C26.545 9.30878 27.2023 11.0629 27.2023 12.9802C27.2068 14.9382 26.4771 16.7377 24.9043 18.6278Z" fill="black"/>
</svg>
