<svg width="32" height="32" viewBox="0 0 32 32" fill="none" xmlns="http://www.w3.org/2000/svg">
<path d="M28.7725 10.5608L21.7307 3.24834C21.501 3.01011 21.1489 2.93533 20.8425 3.05871C20.5348 3.18328 20.3333 3.48122 20.3333 3.81269V7.33366H20.0625C14.2385 7.33366 9.5 12.0722 9.5 17.8962V19.5212C9.5 19.898 9.76541 20.2123 10.1326 20.298C10.1923 20.313 10.2518 20.3196 10.3113 20.3196C10.618 20.3196 10.9116 20.1397 11.0534 19.857C12.5766 16.8095 15.6392 14.9169 19.0463 14.9169H20.3333V18.4377C20.3333 18.7694 20.5348 19.0673 20.8425 19.1907C21.147 19.3153 21.501 19.2395 21.7307 19.001L28.7725 11.6885C29.0758 11.3733 29.0758 10.8772 28.7725 10.5608Z" fill="black"/>
<path d="M25.75 28.9995H6.25C4.45818 28.9995 3 27.5416 3 25.7495V10.583C3 8.79118 4.45818 7.33301 6.25 7.33301H9.5C10.0991 7.33301 10.5833 7.81721 10.5833 8.41628C10.5833 9.01534 10.0991 9.49954 9.5 9.49954H6.25C5.65193 9.49954 5.16653 9.98494 5.16653 10.583V25.7495C5.16653 26.3476 5.65193 26.833 6.25 26.833H25.75C26.3479 26.833 26.8333 26.3476 26.8333 25.7495V17.083C26.8333 16.4839 27.3175 15.9995 27.9165 15.9995C28.5158 15.9995 29 16.4839 29 17.083V25.7495C29 27.5416 27.5418 28.9995 25.75 28.9995Z" fill="black"/>
</svg>
